<svg xmlns="http://www.w3.org/2000/svg" width="128" height="128" viewBox="0 0 33.867 33.867"><path fill="#2a2a2e" d="M0 3.589h33.867v25.4H0z"/><g aria-label="nnt" style="line-height:1.25;-inkscape-font-specification:'sans forgetica'" font-weight="400" font-size="64" font-family="sans forgetica" letter-spacing="0" word-spacing="0" fill="#f9f9fa" stroke="#2a2a2e" stroke-width="2"><path d="M3.644 19.135h2.1l-.339-2.185c.44-.897 1.169-1.524 2.168-1.524.914 0 1.761.711 1.913 1.744l.78 5.622h2.082l-.796-5.757c-.355-2.506-1.524-3.624-3.607-3.624-1.439 0-2.387.898-2.76 1.524l-.22-1.304h-2.1zM14.03 19.135h2.099l-.339-2.185c.44-.897 1.169-1.524 2.168-1.524.914 0 1.76.711 1.913 1.744l.78 5.622h2.082l-.796-5.757c-.355-2.506-1.524-3.624-3.607-3.624-1.439 0-2.387.898-2.76 1.524l-.22-1.304h-2.1zM23.55 15.392h5.876l-.254-1.76h-2.336l-.39-2.795-2.083.119.373 2.675h-1.44zm5.368 7.637c1.016 0 1.728-.372 2.083-.796l-.677-1.54c-.254.287-.627.423-1.152.423-.728 0-1.354-.542-1.49-1.456l-.067-.525h-2.1l.084.66c.34 2.303 1.508 3.234 3.32 3.234z" stroke-width=".52916"/></g></svg>